:SAMPLES-PER-SECOND 30
:FRAME-RANGE 1-3549
:FULLY-SPECIFIED
:DEGREES
3328
root  14.3872 37.852 -1.28974 -171.492 61.3333 -169.458
RightUpLeg  -9.7684 -10.8112 -9.95261
RightLeg  22.0674 3.89906 1.50856
RightFoot  -10.8707 -0.157477 20.0215
RightToes  -1.11029e-010 1.2921e-014 -6.02303e-014
Spine  12.6379 -1.31706 6.12624
Spine1  3.39467 -0.285911 -0.550854
HEad  -22.6035 26.3852 -24.5304
LeftShoulder1  2.27145 -2.5244 -31.6559
LeftArm  41.2931 -21.8765 -59.5211
LeftForeArm  19.2563 -38.451 -7.69624
LeftHand  -0.016575 -1.52237 0.419286
RightShoulder  9.4316 15.0188 44.4592
RightArm  13.9099 2.05471 15.9077
RightForeArm  18.5907 10.7317 12.7478
RightHand  -0.74576 3.81704 -9.64497
LeftUpLeg  -18.7316 5.57347 7.64828
LeftLeg  48.2708 -0.186294 0.203392
LeftFoot  -14.6005 -0.0962053 -6.44907
LeftToes  -1.9349e-011 -1.19469e-011 -2.02219e-012
3329
root  14.9799 37.769 -0.783815 -171.927 58.9257 -169.874
RightUpLeg  -9.98073 -11.1465 -8.73696
RightLeg  24.8831 2.0725 0.814541
RightFoot  -12.9164 0.171165 18.7229
RightToes  -1.11029e-010 1.2921e-014 -6.02303e-014
Spine  12.9009 -1.16249 6.11227
Spine1  3.63104 -0.388816 0.64679
HEad  -21.4534 26.3219 -22.8678
LeftShoulder1  2.248 -2.56217 -31.0313
LeftArm  40.9617 -20.7112 -59.5512
LeftForeArm  18.6613 -37.2696 -7.38987
LeftHand  -0.0393176 -1.91545 0.793345
RightShoulder  10.5195 16.585 45.7562
RightArm  6.45371 5.19583 13.9167
RightForeArm  26.1384 6.36528 14.1031
RightHand  -0.774306 3.76436 -10.0567
LeftUpLeg  -23.3826 12.4374 7.40614
LeftLeg  53.596 3.7973 5.98958
LeftFoot  -7.17039 0.270341 -6.24064
LeftToes  -1.9349e-011 -1.19469e-011 -2.02219e-012
3330
root  15.6099 37.8066 -0.481412 -172.375 56.4235 -170.355
RightUpLeg  -9.14175 -11.5985 -7.74362
RightLeg  25.821 0.0230493 -0.227906
RightFoot  -14.1888 0.351232 17.8973
RightToes  -1.11029e-010 1.2921e-014 -6.02303e-014
Spine  12.4377 -1.14607 6.47036
Spine1  4.14951 -0.549886 1.24801
HEad  -19.4365 26.1095 -20.6884
LeftShoulder1  2.25462 -2.53808 -31.2903
LeftArm  40.6172 -19.3903 -58.0968
LeftForeArm  17.7501 -35.897 -7.0601
LeftHand  -0.0569631 -2.07214 1.06531
RightShoulder  11.1018 17.6993 45.7352
RightArm  2.04542 7.07608 13.4783
RightForeArm  29.087 4.83831 14.1089
RightHand  -0.75283 3.83127 -9.71941
LeftUpLeg  -26.8968 18.0371 5.91122
LeftLeg  55.5714 6.10637 9.9773
LeftFoot  -2.73283 0.200671 -2.44808
LeftToes  -1.9349e-011 -1.19469e-011 -2.02219e-012
3331
root  16.2425 38.0381 -0.332368 -173.164 53.3851 -171.646
RightUpLeg  -7.1268 -13.9185 -7.62277
RightLeg  24.1958 -0.895399 -0.548312
RightFoot  -14.4558 0.378407 17.4269
RightToes  -1.11029e-010 1.2921e-014 -6.02303e-014
Spine  11.7583 -1.17819 6.41882
Spine1  4.23612 -0.778905 1.41987
HEad  -17.3014 25.1605 -19.0193
LeftShoulder1  2.26496 -2.48426 -31.8003
LeftArm  39.7501 -17.8468 -56.0844
LeftForeArm  18.1542 -34.9918 -6.78912
LeftHand  -0.108909 -2.18436 1.85769
RightShoulder  10.9048 17.6427 45.0163
RightArm  4.35868 7.57805 14.1431
RightForeArm  24.2076 8.46512 13.0553
RightHand  -0.771144 3.78518 -9.99551
LeftUpLeg  -29.7148 21.6727 3.0093
LeftLeg  54.3551 4.24626 6.81795
LeftFoot  -4.55836 0.263155 -3.97842
LeftToes  -1.9349e-011 -1.19469e-011 -2.02219e-012
